<?xml version="1.0" encoding="UTF-8"?>
<!DOCTYPE svg PUBLIC "-//W3C//DTD SVG 1.1//EN" "http://www.w3.org/Graphics/SVG/1.1/DTD/svg11.dtd">
<!-- Creator: CorelDRAW -->
<svg xmlns="http://www.w3.org/2000/svg" xml:space="preserve" width="6.17333in" height="6.71735in" version="1.1" style="shape-rendering:geometricPrecision; text-rendering:geometricPrecision; image-rendering:optimizeQuality; fill-rule:evenodd; clip-rule:evenodd"
viewBox="0 0 6173 6717"
 xmlns:xlink="http://www.w3.org/1999/xlink">
 <defs>
  <style type="text/css">
   <![CDATA[
    .str1 {stroke:#373435;stroke-width:7.67717}
    .str0 {stroke:#C8BB3E;stroke-width:7.67717}
    .fil2 {fill:none}
    .fil4 {fill:#FEFEFE}
    .fil1 {fill:#E6E7E8}
    .fil3 {fill:#FFF212}
    .fil6 {fill:#3E4095}
    .fil0 {fill:#161B53}
    .fil7 {fill:#FDF205}
    .fil8 {fill:#373435;fill-rule:nonzero}
    .fil5 {fill:#3E4095;fill-rule:nonzero}
   ]]>
  </style>
    <clipPath id="id0">
     <path d="M5079 2899c-594,-51 -1714,-1101 -2019,-1181l0 0c-305,80 -1425,1130 -2019,1181 -101,-179 -240,-334 -405,-470 1032,-87 1999,-834 2424,-1766 425,931 1392,1679 2425,1766 -166,136 -305,291 -406,470z"/>
    </clipPath>
     <clipPath id="id1">
      <path d="M5096 2870l-164 0c-616,-180 -1591,-1078 -1872,-1152l0 0c-281,74 -1255,972 -1871,1152l-165 0c-99,-167 -232,-312 -388,-441 1032,-87 1999,-834 2424,-1766 425,931 1392,1679 2425,1766 -157,129 -290,274 -389,441z"/>
     </clipPath>
     <clipPath id="id2">
      <path d="M5079 2899c-594,-51 -1714,-1101 -2019,-1181l0 0c-305,80 -1425,1130 -2019,1181 -101,-179 -240,-334 -405,-470 1032,-87 1999,-834 2424,-1766 425,931 1392,1679 2425,1766 -166,136 -305,291 -406,470z"/>
     </clipPath>
 </defs>
 <g id="Layer_x0020_1">
  <metadata id="CorelCorpID_0Corel-Layer"/>
  <g id="Universitas_x0020_Bengkulu_x0020__x0028_KoleksiLogo.com_x0029_.cdr">
   <polygon class="fil0" points="3054,0 4581,1109 6108,2219 5525,4014 4941,5809 3054,5809 1166,5809 583,4014 0,2219 1527,1109 "/>
   <path class="fil1" d="M5079 2899c-594,-51 -1714,-1101 -2019,-1181l0 0c-305,80 -1425,1130 -2019,1181 -101,-179 -240,-334 -405,-470 1032,-87 1999,-834 2424,-1766 425,931 1392,1679 2425,1766 -166,136 -305,291 -406,470z"/>
   <g style="clip-path:url(#id0)">
    <g>
    </g>
    <g style="clip-path:url(#id1)">
     <image x="560" y="529" width="5000" height="2341" xlink:href="Universitas Bengkulu (KoleksiLogo_Images\Universitas Bengkulu (KoleksiLogo_ImgID1.png"/>
    </g>
    <g style="clip-path:url(#id2)">
    </g>
   </g>
   <path class="fil2" d="M5079 2899c-594,-51 -1714,-1101 -2019,-1181l0 0c-305,80 -1425,1130 -2019,1181 -101,-179 -240,-334 -405,-470 1032,-87 1999,-834 2424,-1766 425,931 1392,1679 2425,1766 -166,136 -305,291 -406,470z"/>
   <path class="fil3 str0" d="M4569 2697c227,40 421,33 604,8 -317,-40 -604,-97 -835,-186 461,56 799,40 1038,-33 -486,20 -930,-18 -1281,-182 265,42 521,56 754,-4 -335,2 -680,-48 -1042,-187 191,2 355,-19 454,-93 -258,43 -488,21 -681,-93 141,-4 259,-43 349,-126 -203,51 -381,41 -527,-49 149,-13 246,-64 295,-150 -76,60 -197,76 -368,41 107,-58 169,-141 158,-264 -44,99 -145,151 -280,175 115,-122 154,-259 101,-414 -23,189 -91,304 -207,341 16,-266 17,-511 -32,-690l-11 -72c-44,296 -62,452 -43,762 -116,-37 -184,-152 -207,-341 -53,155 -14,292 101,414 -135,-24 -236,-76 -279,-175 -12,123 50,206 158,264 -172,35 -292,19 -369,-41 49,86 146,137 296,150 -146,90 -325,100 -527,49 89,83 207,122 348,126 -192,114 -423,136 -681,93 100,74 263,95 454,93 -362,139 -707,189 -1042,187 233,60 489,46 754,4 -351,164 -794,202 -1281,182 240,73 577,89 1038,33 -230,89 -518,146 -835,186 183,25 378,32 604,-8 174,-9 1458,-979 1513,-979 24,5 1279,904 1509,979z"/>
   <path class="fil4 str1" d="M2834 1863c126,-88 213,-145 226,-145 6,1 91,60 219,148 4,-17 6,-34 6,-52 0,-126 -102,-228 -228,-228 -126,0 -228,102 -228,228 0,17 2,33 5,49z"/>
   <path class="fil4" d="M3054 2303c537,0 973,436 973,973 0,538 -436,974 -973,974 -538,0 -973,-436 -973,-974 0,-537 435,-973 973,-973zm0 300c372,0 673,302 673,673 0,372 -301,673 -673,673 -372,0 -673,-301 -673,-673 0,-371 301,-673 673,-673z"/>
   <path class="fil5" d="M2195 3056l95 17c18,3 30,11 36,23 6,12 7,26 4,44 -3,18 -9,31 -19,41 -9,10 -23,13 -40,10l-97 -17 8 -45 92 16c7,2 12,1 16,-1 4,-3 6,-7 7,-13 1,-6 1,-10 -1,-14 -2,-4 -4,-6 -7,-8 -2,-1 -8,-2 -16,-4l-84 -14 6 -35zm239 -190l-17 32 -75 5c-10,1 -21,1 -34,0 9,2 17,5 23,8l62 33 -17 32 -129 -68 20 -37 63 -5c13,-1 23,-1 32,-1 -12,-4 -24,-9 -35,-15l-38 -20 17 -32 128 68zm-3 -222l105 101 -31 32 -105 -101 31 -32zm216 -164l41 146 -38 25 -119 -96 39 -26 63 54c4,3 7,6 11,10l-28 -93 31 -20zm269 21l9 33 -105 31 -40 -140 105 -30 9 32 -63 18 6 20 51 -14 9 31 -51 14 7 23 63 -18zm242 23l-50 0 -21 -55 -14 0 0 55 -44 0 0 -145 76 0c16,0 29,4 39,12 9,8 14,18 14,31 0,8 -2,16 -6,22 -3,6 -10,12 -20,17l26 63zm-85 -86l19 0c6,0 10,-2 14,-4 3,-2 5,-6 5,-10 0,-9 -6,-14 -17,-14l-21 0 0 28zm192 66l42 6c-1,12 6,21 20,25 10,4 17,3 18,-3 2,-3 1,-5 -1,-8 -2,-2 -6,-5 -11,-9 -23,-13 -36,-24 -41,-34 -4,-10 -4,-20 -1,-30 5,-13 13,-22 26,-27 13,-5 29,-5 47,2 28,9 43,27 44,53l-39 -2c0,-10 -6,-17 -17,-21 -9,-3 -15,-2 -17,4 -1,2 0,4 1,7 2,2 5,4 11,8 15,9 26,16 32,21 6,5 10,12 12,20 3,8 3,16 -1,25 -4,14 -14,23 -28,28 -14,5 -31,4 -49,-2 -34,-12 -49,-33 -48,-63zm313 34l-75 125 -38 -23 75 -125 38 23zm133 163l-79 78 -30 -30 79 -78 -22 -22 25 -24 73 72 -25 25 -21 -21zm37 252l22 -21 -19 -34 -30 6 -17 -32 149 -31 23 41 -106 111 -22 -40zm34 -64l12 21 31 -31 -43 10zm56 181l14 39c-11,6 -15,15 -12,30 2,11 6,16 11,15 4,-1 6,-3 7,-6 1,-2 2,-7 2,-14 1,-26 4,-43 10,-52 7,-8 15,-13 26,-15 13,-3 26,0 36,9 11,9 18,23 22,42 5,29 -4,51 -25,64l-18 -34c9,-6 13,-14 11,-26 -2,-10 -6,-14 -12,-13 -3,1 -4,2 -6,5 -1,2 -1,6 -1,13 -1,18 -2,30 -4,38 -1,8 -5,15 -11,21 -6,6 -13,10 -22,11 -15,3 -28,-1 -39,-11 -11,-10 -18,-25 -21,-44 -7,-35 4,-59 32,-72z"/>
   <path class="fil6" d="M2430 3904l91 -104 53 46c11,9 16,19 16,29 1,10 -2,18 -9,25 -4,6 -10,9 -16,11 -7,1 -14,0 -21,-3 11,15 11,29 -1,42 -6,7 -15,12 -25,14 -10,2 -23,-4 -38,-17l-50 -43zm86 -39l14 13c4,3 8,5 11,4 3,0 5,-2 7,-4 5,-6 4,-12 -3,-18l-14 -12 -15 17zm-36 41l15 14c4,3 8,5 11,4 4,0 7,-1 9,-4 2,-2 3,-5 3,-9 0,-3 -2,-7 -7,-11l-15 -13 -16 19zm219 143l-16 29 -91 -48 64 -122 92 49 -15 28 -55 -29 -9 17 44 24 -14 27 -45 -24 -10 20 55 29zm179 98l-33 -10 -19 -69c-2,-9 -4,-20 -5,-32 -1,9 -2,17 -4,23l-19 64 -33 -11 40 -131 38 11 16 58c3,11 6,21 6,30 2,-12 4,-24 8,-36l12 -39 33 10 -40 132zm219 -63l-3 77 -20 -1c-2,-5 -3,-10 -5,-14 -9,10 -22,16 -39,15 -18,-1 -32,-7 -43,-20 -11,-13 -16,-30 -15,-51 0,-21 7,-38 18,-52 12,-13 28,-20 50,-19 17,1 30,5 39,14 10,9 16,21 19,36l-41 3c-2,-15 -8,-22 -19,-22 -13,-1 -21,12 -22,39 0,15 2,26 6,31 4,6 9,8 16,9 5,0 9,-2 13,-5 4,-3 6,-7 6,-12l-23 -1 1 -29 62 2zm213 40l-45 11 -36 -45 -9 23 8 31 -39 10 -33 -134 38 -10 14 55 23 -64 37 -9 -22 57 64 75zm114 -201l43 81c8,15 9,28 3,40 -5,11 -15,21 -30,29 -15,8 -29,11 -42,10 -12,-2 -23,-10 -30,-24l-44 -83 38 -20 41 78c3,6 7,9 11,11 4,1 8,0 14,-2 4,-3 7,-6 9,-9 2,-4 3,-7 2,-10 -1,-2 -3,-7 -7,-14l-38 -71 30 -16zm200 -15l21 27 -76 59 -85 -109 33 -26 64 82 43 -33zm44 -205l72 56c14,11 20,23 20,35 0,13 -6,26 -16,39 -11,14 -22,23 -34,26 -12,4 -25,1 -38,-9l-74 -58 27 -34 70 55c5,4 9,6 14,6 4,-1 8,-3 11,-8 4,-4 5,-8 6,-12 0,-4 -1,-7 -3,-9 -1,-3 -6,-6 -12,-11l-63 -50 20 -26z"/>
   <path class="fil4" d="M3054 2855c233,0 422,188 422,421 0,233 -189,422 -422,422 -233,0 -422,-189 -422,-422 0,-233 189,-421 422,-421zm0 172c138,0 249,112 249,249 0,138 -111,250 -249,250 -138,0 -249,-112 -249,-250 0,-137 111,-249 249,-249z"/>
   <g>
    <polygon class="fil3" points="3055,2967 3094,3097 3133,3228 3055,3228 2977,3228 3016,3097 "/>
    <path id="1" class="fil5" d="M3090 3099l-39 -131 8 -2 39 130 0 0 -8 3zm39 130l-39 -130 8 -3 39 131 -4 5 -4 -3zm8 -2l1 5 -5 0 4 -5zm-82 -3l78 0 0 8 -78 0 0 0 0 -8zm-78 0l78 0 0 8 -78 0 -4 -5 4 -3zm0 8l-5 0 1 -5 4 5zm43 -133l-39 130 -8 -2 39 -131 0 0 8 3zm39 -131l-39 131 -8 -3 39 -130 8 0 0 2zm-8 -2l4 -12 4 12 -8 0z"/>
   </g>
   <g>
    <polygon class="fil3" points="2789,3427 2883,3328 2976,3229 3015,3297 3054,3364 2922,3396 "/>
    <path id="1" class="fil5" d="M2885 3331l-93 99 -6 -5 94 -99 0 0 5 5zm94 -99l-94 99 -5 -5 93 -99 6 0 0 5zm-6 -5l4 -4 2 4 -6 0zm39 72l-39 -68 6 -4 39 68 0 0 -6 4zm39 67l-39 -67 6 -4 39 68 -2 5 -4 -2zm6 -3l3 4 -5 1 2 -5zm-136 29l132 -31 2 7 -133 32 0 0 -1 -8zm-133 31l133 -31 1 8 -132 31 -4 -6 2 -2zm2 8l-12 3 8 -9 4 6z"/>
   </g>
   <g>
    <polygon class="fil3" points="3320,3429 3227,3330 3134,3231 3095,3299 3056,3367 3188,3398 "/>
    <path id="1" class="fil5" d="M3224 3333l6 -5 0 0 93 99 -5 5 -94 -99zm-93 -99l0 -5 6 0 93 99 -6 5 -93 -99zm0 -5l2 -4 4 4 -6 0zm-33 72l-6 -4 39 -68 6 4 -39 68zm-39 67l-4 2 -2 -5 39 -68 6 4 -39 67zm-4 2l-5 -1 3 -4 2 5zm134 24l-2 8 0 0 -132 -32 2 -7 132 31zm132 31l2 2 -3 6 -133 -31 2 -8 132 31zm2 2l9 9 -12 -3 3 -6z"/>
   </g>
   <g>
    <polygon class="fil3" points="3053,2659 3081,2752 3109,2846 3053,2846 2997,2846 3025,2752 "/>
    <path id="1" class="fil5" d="M3078 2753l-28 -93 7 -2 28 93 0 0 -7 2zm28 94l-28 -94 7 -2 28 94 -4 5 -3 -3zm7 -2l2 5 -6 0 4 -5zm-60 -3l56 0 0 8 -56 0 0 0 0 -8zm-56 0l56 0 0 8 -56 0 -3 -5 3 -3zm0 8l-5 0 2 -5 3 5zm32 -97l-28 94 -7 -2 28 -94 0 0 7 2zm28 -93l-28 93 -7 -2 28 -93 7 0 0 2zm-7 -2l3 -13 4 13 -7 0z"/>
   </g>
   <g>
    <polygon class="fil3" points="3054,3900 3082,3807 3110,3713 3054,3713 2998,3713 3026,3807 "/>
    <path id="1" class="fil5" d="M3079 3806l7 2 -28 93 -7 -2 28 -93zm28 -94l3 -3 4 5 -28 94 -7 -2 28 -94zm3 -3l5 0 -1 5 -4 -5zm-56 8l0 -8 56 0 0 8 -56 0zm-56 0l-3 -3 3 -5 56 0 0 8 -56 0zm-3 -3l-2 -5 5 0 -3 5zm35 92l-7 2 0 0 -28 -94 7 -2 28 94zm28 93l0 2 -7 0 -28 -93 7 -2 28 93zm0 2l-4 13 -3 -13 7 0z"/>
   </g>
   <g>
    <polygon class="fil3" points="3680,3281 3587,3253 3493,3225 3493,3281 3493,3337 3587,3309 "/>
    <path id="1" class="fil5" d="M3586 3256l2 -7 93 28 -2 7 -93 -28zm-94 -28l-3 -3 5 -4 94 28 -2 7 -94 -28zm-3 -3l0 -5 5 1 -5 4zm8 56l-8 0 0 -56 8 0 0 56zm0 56l-3 3 -5 -3 0 -56 8 0 0 56zm-3 3l-5 2 0 -5 5 3zm92 -35l2 7 0 0 -94 28 -2 -7 94 -28zm93 -28l2 0 0 7 -93 28 -2 -7 93 -28zm2 0l13 4 -13 3 0 -7z"/>
   </g>
   <g>
    <polygon class="fil3" points="2433,3281 2527,3253 2620,3225 2620,3281 2620,3337 2527,3309 "/>
    <path id="1" class="fil5" d="M2528 3256l-94 28 -2 -7 94 -28 0 0 2 7zm93 -28l-93 28 -2 -7 93 -28 5 4 -3 3zm-2 -7l5 -1 0 5 -5 -4zm-3 60l0 -56 8 0 0 56 0 0 -8 0zm0 56l0 -56 8 0 0 56 -5 3 -3 -3zm8 0l0 5 -5 -2 5 -3zm-96 -32l93 28 -2 7 -93 -28 0 0 2 -7zm-94 -28l94 28 -2 7 -94 -28 0 -7 2 0zm-2 7l-12 -3 12 -4 0 7z"/>
   </g>
   <g>
    <polygon class="fil3" points="2747,2742 2816,2811 2886,2879 2837,2906 2788,2933 2767,2838 "/>
    <path id="1" class="fil5" d="M2814 2813l-70 -68 5 -6 70 69 0 0 -5 5zm69 69l-69 -69 5 -5 70 68 -1 6 -5 0zm6 -6l3 4 -4 2 1 -6zm-54 27l49 -28 4 7 -49 27 0 0 -4 -6zm-49 27l49 -27 4 6 -49 27 -6 -2 2 -4zm4 6l-5 3 -1 -5 6 2zm-19 -99l21 95 -8 2 -20 -96 0 0 7 -1zm-21 -96l21 96 -7 1 -21 -95 6 -4 1 2zm-7 2l-3 -13 9 9 -6 4z"/>
   </g>
   <g>
    <polygon class="fil3" points="3365,2742 3296,2811 3226,2879 3275,2906 3324,2933 3345,2838 "/>
    <path id="1" class="fil5" d="M3298 2813l-5 -5 0 0 70 -69 5 6 -70 68zm-69 69l-5 0 -1 -6 70 -68 5 5 -69 69zm-5 0l-5 -2 4 -4 1 6zm53 21l-4 6 -49 -27 4 -7 49 28zm49 27l2 4 -6 2 -49 -27 4 -6 49 27zm2 4l-1 5 -5 -3 6 -2zm13 -97l7 1 0 0 -20 96 -8 -2 21 -95zm21 -96l1 -2 6 4 -21 95 -7 -1 21 -96zm1 -2l9 -9 -3 13 -6 -4z"/>
   </g>
   <g>
    <polygon class="fil3" points="2521,2970 2616,2993 2711,3015 2683,3064 2655,3112 2588,3041 "/>
    <path id="1" class="fil5" d="M2616 2996l-95 -22 1 -8 95 23 0 0 -1 7zm95 23l-95 -23 1 -7 95 22 3 6 -4 2zm1 -8l5 2 -2 4 -3 -6zm-32 51l28 -49 7 4 -28 49 0 0 -7 -4zm-28 48l28 -48 7 4 -28 48 -6 1 -1 -5zm7 4l-3 5 -3 -4 6 -1zm-68 -75l67 71 -5 5 -67 -71 0 0 5 -5zm-67 -71l67 71 -5 5 -67 -71 3 -7 2 2zm-5 5l-9 -9 12 2 -3 7z"/>
   </g>
   <g>
    <polygon class="fil3" points="2743,3810 2812,3741 2882,3673 2833,3646 2784,3619 2763,3714 "/>
    <path id="1" class="fil5" d="M2810 3738l5 6 0 0 -70 68 -5 -5 70 -69zm69 -68l5 0 1 6 -70 68 -5 -6 69 -68zm5 0l4 2 -3 4 -1 -6zm-53 -21l4 -7 49 28 -4 6 -49 -27zm-49 -27l-2 -4 6 -3 49 27 -4 7 -49 -27zm-2 -4l1 -5 5 2 -6 3zm-13 97l-7 -2 0 0 20 -95 8 2 -21 95zm-21 95l-1 2 -6 -3 21 -96 7 2 -21 95zm-1 2l-9 9 3 -12 6 3z"/>
   </g>
   <g>
    <polygon class="fil3" points="2517,3582 2612,3559 2707,3537 2679,3488 2651,3440 2584,3511 "/>
    <path id="1" class="fil5" d="M2612 3555l1 8 0 0 -95 22 -2 -7 96 -23zm95 -22l4 2 -3 5 -95 23 -1 -8 95 -22zm4 2l2 4 -5 1 3 -5zm-35 -45l7 -4 0 0 28 49 -7 4 -28 -49zm-28 -49l1 -4 6 1 28 48 -7 4 -28 -49zm1 -4l3 -4 3 5 -6 -1zm-62 76l-5 -5 0 0 67 -71 5 5 -67 71zm-67 71l-2 1 -3 -6 67 -71 5 5 -67 71zm-2 1l-12 3 9 -9 3 6z"/>
   </g>
   <g>
    <polygon class="fil3" points="3366,3818 3297,3749 3227,3681 3276,3654 3325,3627 3346,3722 "/>
    <path id="1" class="fil5" d="M3299 3747l70 68 -5 5 -70 -68 5 -5zm-69 -69l69 69 -5 5 -70 -68 1 -6 5 0zm-6 6l-3 -4 4 -2 -1 6zm54 -27l-49 27 -4 -6 49 -27 0 0 4 6zm49 -27l-49 27 -4 -6 49 -28 6 3 -2 4zm-4 -7l5 -2 1 5 -6 -3zm19 100l-21 -95 8 -2 20 95 0 0 -7 2zm21 96l-21 -96 7 -2 21 96 -6 3 -1 -1zm7 -2l3 12 -9 -9 6 -3z"/>
   </g>
   <g>
    <polygon class="fil3" points="3592,3590 3497,3567 3402,3545 3430,3496 3458,3448 3525,3519 "/>
    <path id="1" class="fil5" d="M3497 3563l95 23 -1 7 -95 -22 0 0 1 -8zm-95 -22l95 22 -1 8 -95 -23 -3 -5 4 -2zm-1 7l-5 -1 2 -4 3 5zm32 -50l-28 49 -7 -4 28 -49 7 4zm28 -48l-28 48 -7 -4 28 -48 6 -1 1 5zm-7 -4l3 -5 3 4 -6 1zm68 75l-67 -71 5 -5 67 71 0 0 -5 5zm67 71l-67 -71 5 -5 67 71 -3 6 -2 -1zm5 -5l9 9 -12 -3 3 -6z"/>
   </g>
   <polygon class="fil4" points="3677,4064 3744,4000 4608,4001 4593,4068 "/>
   <polygon class="fil4" points="4631,3917 4656,3847 3891,3843 3847,3911 "/>
   <polygon class="fil4" points="3974,3698 3947,3764 4679,3766 4703,3696 "/>
   <polygon class="fil4" points="4040,3549 4011,3613 4733,3617 4757,3550 "/>
   <polygon class="fil4" points="4067,3394 4056,3464 4794,3467 4835,3394 "/>
   <path class="fil4" d="M2871 4394c51,31 113,27 187,-8 79,37 133,31 178,8 -50,-5 -99,-20 -146,-55 -20,-7 -40,-7 -60,0 -51,32 -105,42 -159,55z"/>
   <path class="fil4" d="M2866 4613c50,30 113,27 186,-9 79,38 134,32 179,9 -51,-5 -100,-20 -146,-55 -20,-7 -40,-7 -61,0 -51,31 -105,42 -158,55z"/>
   <path class="fil4" d="M3368 4402c51,30 113,27 187,-8 79,37 133,31 178,8 -50,-5 -99,-20 -146,-55 -20,-7 -40,-7 -60,0 -51,31 -105,42 -159,55z"/>
   <path class="fil4" d="M2359 4398c51,30 113,27 186,-8 79,37 134,31 179,8 -51,-5 -100,-20 -146,-55 -20,-7 -40,-7 -60,0 -51,31 -105,42 -159,55z"/>
   <path class="fil4" d="M1860 4398c51,31 113,28 187,-8 79,38 133,32 178,8 -50,-5 -99,-20 -146,-54 -20,-7 -40,-8 -60,0 -51,31 -105,41 -159,54z"/>
   <path class="fil4" d="M3875 4402c51,31 113,28 187,-8 79,38 133,32 178,8 -50,-4 -99,-20 -146,-54 -20,-7 -40,-8 -60,0 -51,31 -105,41 -159,54z"/>
   <path class="fil4" d="M2201 4609c50,31 113,28 186,-8 79,38 134,32 179,8 -51,-5 -100,-20 -146,-54 -20,-7 -40,-8 -61,0 -50,31 -105,41 -158,54z"/>
   <path class="fil4" d="M3531 4609c50,31 113,28 186,-8 79,38 134,32 179,8 -51,-5 -100,-20 -146,-54 -21,-7 -41,-8 -61,0 -51,31 -105,41 -158,54z"/>
   <path class="fil4" d="M2521 4823c51,31 113,28 187,-8 78,38 133,32 178,8 -50,-5 -100,-20 -146,-54 -20,-7 -40,-8 -60,0 -51,31 -105,41 -159,54z"/>
   <path class="fil4" d="M3223 4824c50,31 112,28 186,-8 79,38 133,31 178,8 -50,-5 -99,-20 -146,-55 -20,-6 -40,-7 -60,0 -51,32 -105,42 -158,55z"/>
   <path class="fil7" d="M3176 426c-161,80 -53,270 6,394 274,572 919,1101 1500,1358 159,70 721,275 921,191 173,-74 69,-278 -52,-342 -125,-65 -273,-111 -400,-172 -692,-332 -1129,-679 -1613,-1245 -66,-77 -189,-269 -362,-184z"/>
   <path class="fil7" d="M2795 423c-109,35 -196,166 -295,278 -1006,1142 -1867,1210 -2026,1405 -79,96 -101,298 194,279 635,-40 1219,-422 1572,-715 288,-239 605,-597 748,-966 27,-69 61,-144 19,-220 -37,-67 -121,-90 -212,-61z"/>
   <path class="fil7" d="M5629 2441c-165,35 -443,390 -539,535 -369,557 -629,1426 -519,2110 23,142 45,331 178,356 169,32 223,-157 233,-286 67,-835 200,-1348 602,-2076l201 -334c69,-134 12,-341 -156,-305z"/>
   <path class="fil7" d="M1566 4781c2,-815 -370,-1806 -966,-2280 -176,-140 -289,-34 -300,90 -23,270 683,861 815,2361 15,170 -2,339 101,437 47,45 119,77 193,36 131,-73 156,-504 157,-644z"/>
   <path class="fil7" d="M2739 4986c-442,54 -793,127 -1152,362 -123,81 -153,230 -1,303 124,60 274,-6 403,-34 815,-182 1441,-174 2255,27 143,36 284,62 364,-62 92,-145 -83,-239 -170,-290 -410,-241 -1115,-378 -1699,-306z"/>
   <polygon class="fil4" points="2441,4064 2373,4000 1509,4001 1524,4068 "/>
   <polygon class="fil4" points="1486,3917 1461,3847 2226,3843 2271,3911 "/>
   <polygon class="fil4" points="2143,3698 2170,3764 1439,3766 1414,3696 "/>
   <polygon class="fil4" points="2077,3549 2106,3613 1384,3617 1360,3550 "/>
   <polygon class="fil4" points="2050,3394 2062,3464 1324,3467 1282,3394 "/>
   <path class="fil8" d="M2656 6173l0 -137 90 0 0 137c0,16 2,27 6,33 4,6 10,9 19,9 9,0 16,-3 20,-9 4,-6 6,-17 6,-33l0 -137 90 0 0 137c0,17 -1,32 -3,44 -3,11 -7,21 -12,29 -10,16 -24,28 -41,36 -17,8 -37,13 -60,13 -22,0 -42,-5 -59,-13 -18,-8 -32,-20 -42,-36 -5,-8 -8,-17 -11,-29 -2,-11 -3,-26 -3,-44zm278 115l0 -252 89 0 78 132c-1,-6 -2,-13 -2,-20 -1,-7 -1,-16 -1,-28l0 -84 87 0 0 252 -89 0 -77 -131c1,6 1,12 2,18 0,7 0,14 0,22l0 91 -87 0zm300 0l0 -252 92 0 0 252 -92 0zm225 -103l0 41 15 0c10,0 17,-2 21,-6 5,-3 8,-8 8,-15 0,-6 -3,-11 -8,-14 -4,-4 -11,-6 -21,-6l-15 0zm0 -89l0 35 12 0c8,0 13,-1 17,-4 4,-3 6,-8 6,-13 0,-6 -2,-11 -6,-14 -4,-3 -9,-4 -17,-4l-12 0zm-85 192l0 -252 121 0c26,0 46,6 60,18 15,12 22,29 22,51 0,13 -3,25 -10,34 -7,9 -17,15 -29,18 17,3 30,10 38,20 8,10 12,23 12,40 0,23 -7,41 -23,53 -16,12 -40,18 -70,18l-121 0zm-3317 307l0 -136 90 0 0 137c0,16 2,27 6,33 3,6 10,9 19,9 9,0 16,-3 20,-9 3,-6 5,-17 5,-33l0 -137 91 0 0 136c0,18 -1,33 -4,45 -2,11 -6,21 -11,29 -10,15 -24,27 -41,36 -18,8 -38,12 -60,12 -22,0 -42,-4 -60,-12 -17,-9 -31,-21 -41,-36 -5,-8 -9,-18 -11,-29 -2,-12 -3,-26 -3,-45zm278 116l0 -252 89 0 78 132c-1,-6 -2,-13 -2,-20 -1,-7 -1,-16 -1,-28l0 -84 87 0 0 252 -89 0 -78 -131c1,6 2,12 2,18 1,7 1,14 1,22l0 91 -87 0zm299 0l0 -252 92 0 0 252 -92 0zm201 0l-96 -252 98 0 27 91c4,13 7,25 9,34 1,9 3,18 3,25l2 0c1,-8 3,-17 5,-26 2,-10 5,-20 8,-31l28 -93 96 0 -95 252 -85 0zm192 0l0 -252 168 0 0 68 -80 0 0 24 73 0 0 65 -73 0 0 26 82 0 0 69 -170 0zm295 -187l0 49 15 0c8,0 15,-2 19,-6 5,-5 7,-11 7,-18 0,-8 -2,-15 -7,-19 -4,-4 -11,-6 -19,-6l-15 0zm-88 187l0 -252 114 0c33,0 58,7 75,22 18,14 26,35 26,63 0,18 -4,32 -13,44 -9,11 -20,18 -35,20l67 103 -102 0 -44 -83 0 83 -88 0zm229 -22l29 -70c13,9 24,15 35,19 10,5 19,7 28,7 6,0 11,-1 15,-4 3,-2 5,-5 5,-9 0,-7 -9,-13 -27,-16 -5,-2 -10,-3 -13,-3 -19,-5 -33,-13 -43,-25 -10,-11 -15,-26 -15,-43 0,-27 9,-49 29,-66 19,-17 45,-26 76,-26 15,0 29,2 43,6 14,4 28,9 42,17l-28 66c-8,-6 -17,-11 -26,-15 -9,-3 -17,-5 -25,-5 -7,0 -11,1 -15,3 -3,2 -5,5 -5,9 0,7 12,14 38,19 4,1 7,2 9,2 17,4 31,12 41,24 10,12 15,27 15,44 0,27 -10,50 -30,68 -21,18 -47,26 -79,26 -16,0 -33,-2 -49,-7 -17,-4 -34,-11 -50,-21zm240 22l0 -252 92 0 0 252 -92 0zm173 0l0 -170 -50 0 0 -82 191 0 0 82 -50 0 0 170 -91 0zm243 -92l37 0 -7 -28c-4,-15 -7,-26 -8,-34 -2,-8 -2,-15 -3,-22l-1 0c-1,7 -1,14 -3,22 -1,8 -4,19 -8,34l-7 28zm-120 92l89 -252 101 0 88 252 -97 0 -8 -32 -68 0 -8 32 -97 0zm269 -22l29 -70c13,9 25,15 35,19 10,5 20,7 28,7 7,0 11,-1 15,-4 4,-2 5,-5 5,-9 0,-7 -9,-13 -26,-16 -6,-2 -11,-3 -14,-3 -19,-5 -33,-13 -43,-25 -10,-11 -15,-26 -15,-43 0,-27 10,-49 29,-66 20,-17 45,-26 76,-26 15,0 29,2 43,6 14,4 28,9 42,17l-27 66c-9,-6 -18,-11 -26,-15 -9,-3 -18,-5 -26,-5 -6,0 -11,1 -15,3 -3,2 -5,5 -5,9 0,7 13,14 38,19 4,1 7,2 9,2 18,4 31,12 41,24 10,12 15,27 15,44 0,27 -10,50 -30,68 -20,18 -46,26 -79,26 -16,0 -33,-2 -49,-7 -17,-4 -33,-11 -50,-21zm359 22l0 -252 89 0 78 132c-1,-6 -2,-13 -2,-20 0,-7 -1,-16 -1,-28l0 -84 88 0 0 252 -90 0 -77 -131c1,6 1,12 2,18 0,7 0,14 0,22l0 91 -87 0zm298 0l0 -252 168 0 0 68 -79 0 0 24 72 0 0 65 -72 0 0 26 81 0 0 69 -170 0zm367 -90l-39 0 0 -60 139 0c0,6 0,9 1,12 0,2 0,5 0,7 0,14 -2,27 -4,39 -3,12 -7,23 -12,32 -13,21 -30,38 -50,49 -20,12 -44,17 -69,17 -19,0 -37,-3 -53,-9 -17,-7 -31,-16 -44,-28 -12,-13 -22,-27 -28,-43 -7,-16 -10,-33 -10,-52 0,-19 3,-36 10,-52 6,-16 16,-30 28,-42 13,-12 27,-22 44,-28 16,-7 34,-10 53,-10 26,0 48,6 68,17 21,11 37,28 50,50l-81 30c-4,-7 -9,-13 -15,-16 -6,-3 -13,-5 -21,-5 -13,0 -24,5 -32,15 -8,10 -12,24 -12,41 0,18 4,32 12,42 8,9 20,14 34,14 9,0 16,-2 22,-5 5,-4 8,-9 9,-15zm134 90l0 -252 168 0 0 68 -80 0 0 24 73 0 0 65 -73 0 0 26 82 0 0 69 -170 0zm296 -187l0 49 14 0c8,0 15,-2 19,-6 5,-5 7,-11 7,-18 0,-8 -2,-15 -7,-19 -4,-4 -11,-6 -19,-6l-14 0zm-89 187l0 -252 114 0c33,0 58,7 75,22 18,14 26,35 26,63 0,18 -4,32 -13,44 -8,11 -20,18 -35,20l67 103 -101 0 -44 -83 0 83 -89 0zm254 0l0 -252 92 0 0 252 -92 0zm346 -103l0 40 15 0c9,0 16,-1 21,-5 5,-3 8,-8 8,-15 0,-6 -3,-11 -8,-15 -5,-3 -12,-5 -21,-5l-15 0zm0 -89l0 35 12 0c7,0 13,-2 17,-5 4,-3 6,-7 6,-13 0,-5 -2,-10 -6,-13 -4,-3 -10,-4 -17,-4l-12 0zm-85 192l0 -252 121 0c26,0 46,6 60,18 15,12 22,29 22,50 0,14 -3,26 -10,35 -7,9 -17,15 -29,18 17,3 30,10 38,20 8,10 12,23 12,39 0,24 -7,42 -23,54 -16,12 -40,18 -70,18l-121 0zm247 0l0 -252 168 0 0 68 -79 0 0 24 72 0 0 65 -72 0 0 26 81 0 0 69 -170 0zm207 0l0 -252 89 0 78 132c-1,-6 -2,-13 -2,-20 -1,-7 -1,-16 -1,-28l0 -84 88 0 0 252 -90 0 -77 -131c1,6 1,12 2,18 0,7 0,14 0,22l0 91 -87 0zm458 -90l-39 0 0 -60 139 0c0,6 0,9 0,12 1,2 1,5 1,7 0,14 -2,27 -5,39 -2,12 -6,23 -12,32 -12,21 -29,38 -49,49 -21,12 -44,17 -69,17 -19,0 -37,-3 -54,-9 -16,-7 -30,-16 -43,-28 -12,-13 -22,-27 -28,-43 -7,-16 -10,-33 -10,-52 0,-19 3,-36 10,-52 6,-16 16,-30 28,-42 13,-12 27,-22 43,-28 17,-7 35,-10 54,-10 25,0 48,6 68,17 20,11 37,28 50,50l-81 30c-4,-7 -9,-13 -15,-16 -6,-3 -13,-5 -21,-5 -13,0 -24,5 -32,15 -8,10 -12,24 -12,41 0,18 4,32 12,42 8,9 19,14 34,14 9,0 16,-2 21,-5 6,-4 9,-9 10,-15zm134 90l0 -252 88 0 0 107 58 -107 102 0 -76 124 87 128 -110 0 -61 -106 0 106 -88 0zm266 -116l0 -136 91 0 0 137c0,16 1,27 5,33 4,6 10,9 20,9 9,0 15,-3 19,-9 4,-6 6,-17 6,-33l0 -137 90 0 0 136c0,18 -1,33 -3,45 -2,11 -6,21 -11,29 -11,15 -24,27 -42,36 -17,8 -37,12 -59,12 -23,0 -43,-4 -60,-12 -18,-9 -31,-21 -42,-36 -5,-8 -8,-18 -10,-29 -3,-12 -4,-26 -4,-45zm278 116l0 -252 91 0 0 170 88 0 0 82 -179 0zm204 -116l0 -136 90 0 0 137c0,16 2,27 6,33 4,6 10,9 20,9 9,0 15,-3 19,-9 4,-6 6,-17 6,-33l0 -137 90 0 0 136c0,18 -1,33 -3,45 -3,11 -6,21 -11,29 -11,15 -24,27 -42,36 -17,8 -37,12 -59,12 -23,0 -43,-4 -60,-12 -18,-9 -31,-21 -42,-36 -5,-8 -8,-18 -11,-29 -2,-12 -3,-26 -3,-45z"/>
  </g>
 </g>
</svg>
